<svg width="24" height="25" viewBox="0 0 24 25" fill="none" xmlns="http://www.w3.org/2000/svg">
<path d="M3.42857 0.183105C2.51926 0.183105 1.64719 0.549416 1.00421 1.20145C0.361223 1.85349 0 2.73785 0 3.65997V21.0443C0 21.9664 0.361223 22.8507 1.00421 23.5028C1.64719 24.1548 2.51926 24.5211 3.42857 24.5211H20.5714C21.4807 24.5211 22.3528 24.1548 22.9958 23.5028C23.6388 22.8507 24 21.9664 24 21.0443V3.65997C24 2.73785 23.6388 1.85349 22.9958 1.20145C22.3528 0.549416 21.4807 0.183105 20.5714 0.183105H3.42857ZM10.2857 18.2871L5.64514 13.5812L8.06914 11.123L10.2857 13.3708L16.788 6.77697L19.212 9.23511L10.2857 18.2871Z" fill="white"/>
<path d="M20.5714 23.5211H3.42857C2.78902 23.5211 2.1728 23.2636 1.71624 22.8006C1.25922 22.3372 1 21.7057 1 21.0443V3.65997C1 2.99858 1.25922 2.36706 1.71624 1.9036C2.1728 1.44061 2.78902 1.18311 3.42857 1.18311H20.5714C21.211 1.18311 21.8272 1.44061 22.2838 1.9036C22.7408 2.36706 23 2.99858 23 3.65997V21.0443C23 21.7057 22.7408 22.3372 22.2838 22.8006C21.8272 23.2636 21.211 23.5211 20.5714 23.5211Z" stroke="white" stroke-width="2"/>
</svg>
