<svg width="32" height="32" viewBox="0 0 32 32" fill="none" xmlns="http://www.w3.org/2000/svg">
<path d="M14.3158 32.0001H0.842105C0.376921 32.0001 0 31.6231 0 31.158V3.64919C0 3.25034 0.279882 2.90604 0.670232 2.8249L14.1439 0.0178856C14.3917 -0.0341958 14.6502 0.0288498 14.847 0.18894C15.0439 0.348754 15.1579 0.588608 15.1579 0.842172V31.158C15.1579 31.6231 14.781 32.0001 14.3158 32.0001ZM1.68421 30.3159H13.4737V1.87781L1.68421 4.33395V30.3159Z" fill="white"/>
<path d="M17.6842 32.0002H14.3158C13.8506 32.0002 13.4737 31.6232 13.4737 31.1581V0.842271C13.4737 0.559104 13.616 0.295121 13.8523 0.139146C14.0888 -0.0165533 14.3879 -0.0428719 14.6475 0.0681512L22.5071 3.43657C22.8169 3.56925 23.0176 3.8738 23.0176 4.2107V7.57912C23.0176 8.0443 22.6404 8.42122 22.1754 8.42122C21.7105 8.42122 21.3333 8.0443 21.3333 7.57912V4.76607L15.1579 2.11941V30.316H17.6842C18.1491 30.316 18.5263 30.6929 18.5263 31.1581C18.5263 31.6233 18.1491 32.0002 17.6842 32.0002Z" fill="white"/>
<path d="M3.64911 9.54388C3.18393 9.54388 2.80701 9.16696 2.80701 8.70178V7.01757C2.80701 6.55238 3.18393 6.17546 3.64911 6.17546C4.1143 6.17546 4.49122 6.55238 4.49122 7.01757V8.70178C4.49122 9.16696 4.1143 9.54388 3.64911 9.54388Z" fill="white"/>
<path d="M7.29825 8.98248C6.83307 8.98248 6.45615 8.60556 6.45615 8.14038V6.45616C6.45615 5.99098 6.83307 5.61406 7.29825 5.61406C7.76344 5.61406 8.14036 5.99098 8.14036 6.45616V8.14038C8.14036 8.60556 7.76344 8.98248 7.29825 8.98248Z" fill="white"/>
<path d="M10.9474 8.42108C10.4822 8.42108 10.1053 8.04416 10.1053 7.57897V5.89476C10.1053 5.42958 10.4822 5.05266 10.9474 5.05266C11.4125 5.05266 11.7895 5.42958 11.7895 5.89476V7.57897C11.7895 8.04416 11.4125 8.42108 10.9474 8.42108Z" fill="white"/>
<path d="M3.64911 14.9707C3.18393 14.9707 2.80701 14.5938 2.80701 14.1286V12.4444C2.80701 11.9792 3.18393 11.6023 3.64911 11.6023C4.1143 11.6023 4.49122 11.9792 4.49122 12.4444V14.1286C4.49122 14.5938 4.1143 14.9707 3.64911 14.9707Z" fill="white"/>
<path d="M7.29825 14.5965C6.83307 14.5965 6.45615 14.2196 6.45615 13.7544V12.0702C6.45615 11.605 6.83307 11.2281 7.29825 11.2281C7.76344 11.2281 8.14036 11.605 8.14036 12.0702V13.7544C8.14036 14.2196 7.76344 14.5965 7.29825 14.5965Z" fill="white"/>
<path d="M10.9474 14.2223C10.4822 14.2223 10.1053 13.8454 10.1053 13.3802V11.696C10.1053 11.2308 10.4822 10.8539 10.9474 10.8539C11.4125 10.8539 11.7895 11.2308 11.7895 11.696V13.3802C11.7895 13.8454 11.4125 14.2223 10.9474 14.2223Z" fill="white"/>
<path d="M3.64911 20.3978C3.18393 20.3978 2.80701 20.0209 2.80701 19.5557V17.8715C2.80701 17.4063 3.18393 17.0294 3.64911 17.0294C4.1143 17.0294 4.49122 17.4063 4.49122 17.8715V19.5557C4.49122 20.0209 4.1143 20.3978 3.64911 20.3978Z" fill="white"/>
<path d="M7.29825 20.2106C6.83307 20.2106 6.45615 19.8336 6.45615 19.3684V17.6842C6.45615 17.2191 6.83307 16.8421 7.29825 16.8421C7.76344 16.8421 8.14036 17.2191 8.14036 17.6842V19.3684C8.14036 19.8336 7.76344 20.2106 7.29825 20.2106Z" fill="white"/>
<path d="M10.9474 20.0233C10.4822 20.0233 10.1053 19.6464 10.1053 19.1812V17.497C10.1053 17.0318 10.4822 16.6549 10.9474 16.6549C11.4125 16.6549 11.7895 17.0318 11.7895 17.497V19.1812C11.7895 19.6464 11.4125 20.0233 10.9474 20.0233Z" fill="white"/>
<path d="M3.64911 25.8246C3.18393 25.8246 2.80701 25.4477 2.80701 24.9825V23.2983C2.80701 22.8331 3.18393 22.4562 3.64911 22.4562C4.1143 22.4562 4.49122 22.8331 4.49122 23.2983V24.9825C4.49122 25.4477 4.1143 25.8246 3.64911 25.8246Z" fill="white"/>
<path d="M7.29825 25.8246C6.83307 25.8246 6.45615 25.4477 6.45615 24.9825V23.2983C6.45615 22.8331 6.83307 22.4562 7.29825 22.4562C7.76344 22.4562 8.14036 22.8331 8.14036 23.2983V24.9825C8.14036 25.4477 7.76344 25.8246 7.29825 25.8246Z" fill="white"/>
<path d="M10.9474 25.8246C10.4822 25.8246 10.1053 25.4477 10.1053 24.9825V23.2983C10.1053 22.8331 10.4822 22.4562 10.9474 22.4562C11.4125 22.4562 11.7895 22.8331 11.7895 23.2983V24.9825C11.7895 25.4477 11.4125 25.8246 10.9474 25.8246Z" fill="white"/>
<path d="M31.1579 32H17.6842C17.2193 32 16.8421 31.6231 16.8421 31.1579V11.5087C16.8421 11.1036 17.1305 10.7557 17.5291 10.6812L26.5115 8.99696C26.6935 8.96297 26.8788 8.98928 27.0433 9.07124L31.5345 11.316C31.8196 11.4586 32 11.7503 32 12.0693V31.1579C32 31.6231 31.6228 32 31.1579 32ZM18.5263 30.3158H30.3158V12.5899L26.5433 10.7045L18.5263 12.2078V30.3158Z" fill="white"/>
<path d="M20.0652 16.8421C19.6003 16.8421 19.2231 16.4652 19.2231 16V14.3158C19.2231 13.8506 19.6003 13.4737 20.0652 13.4737C20.5302 13.4737 20.9074 13.8506 20.9074 14.3158V16C20.9074 16.4652 20.5302 16.8421 20.0652 16.8421Z" fill="white"/>
<path d="M20.0652 21.8948C19.6003 21.8948 19.2231 21.5178 19.2231 21.0527V19.3684C19.2231 18.9033 19.6003 18.5263 20.0652 18.5263C20.5302 18.5263 20.9074 18.9033 20.9074 19.3684V21.0527C20.9074 21.5178 20.5302 21.8948 20.0652 21.8948Z" fill="white"/>
<path d="M23.2983 21.6141C22.8333 21.6141 22.4561 21.2371 22.4561 20.772V19.0877C22.4561 18.6226 22.8333 18.2456 23.2983 18.2456C23.7632 18.2456 24.1404 18.6226 24.1404 19.0877V20.772C24.1404 21.2371 23.7632 21.6141 23.2983 21.6141Z" fill="white"/>
<path d="M20.0652 26.9474C19.6003 26.9474 19.2231 26.5705 19.2231 26.1053V24.4211C19.2231 23.9559 19.6003 23.579 20.0652 23.579C20.5302 23.579 20.9074 23.9559 20.9074 24.4211V26.1053C20.9074 26.5705 20.5302 26.9474 20.0652 26.9474Z" fill="white"/>
<path d="M23.2983 16.2807C22.8333 16.2807 22.4561 15.9038 22.4561 15.4386V13.7544C22.4561 13.2892 22.8333 12.9123 23.2983 12.9123C23.7632 12.9123 24.1404 13.2892 24.1404 13.7544V15.4386C24.1404 15.9038 23.7632 16.2807 23.2983 16.2807Z" fill="white"/>
<path d="M23.2983 26.9474C22.8333 26.9474 22.4561 26.5705 22.4561 26.1053V24.4211C22.4561 23.9559 22.8333 23.579 23.2983 23.579C23.7632 23.579 24.1404 23.9559 24.1404 24.4211V26.1053C24.1404 26.5705 23.7632 26.9474 23.2983 26.9474Z" fill="white"/>
<path d="M26.6667 31.9159C26.2018 31.9159 25.8246 31.539 25.8246 31.0738V9.82459C25.8246 9.3594 26.2018 8.98248 26.6667 8.98248C27.1316 8.98248 27.5088 9.3594 27.5088 9.82459V31.0738C27.5088 31.539 27.1316 31.9159 26.6667 31.9159Z" fill="white"/>
</svg>
