<svg width="18" height="18" viewBox="0 0 18 18" fill="none" xmlns="http://www.w3.org/2000/svg">
<path fill-rule="evenodd" clip-rule="evenodd" d="M9 4.5C6.51487 4.5 4.5 6.51487 4.5 9C4.5 11.4851 6.51487 13.5 9 13.5C11.4851 13.5 13.5 11.4851 13.5 9C13.5 6.51487 11.4851 4.5 9 4.5ZM9 11.8125C7.44975 11.8125 6.1875 10.5503 6.1875 9C6.1875 7.44863 7.44975 6.1875 9 6.1875C10.5503 6.1875 11.8125 7.44863 11.8125 9C11.8125 10.5503 10.5503 11.8125 9 11.8125Z" fill="#848484"/>
<path d="M14.4 4.04992C14.4 4.29845 14.1985 4.49992 13.95 4.49992C13.7015 4.49992 13.5 4.29845 13.5 4.04992C13.5 3.80139 13.7015 3.59992 13.95 3.59992C14.1985 3.59992 14.4 3.80139 14.4 4.04992Z" fill="#848484"/>
<path fill-rule="evenodd" clip-rule="evenodd" d="M18 5.625C18 2.51888 15.4811 0 12.375 0H5.625C2.51888 0 0 2.51888 0 5.625V12.375C0 15.4811 2.51888 18 5.625 18H12.375C15.4811 18 18 15.4811 18 12.375V5.625ZM16.3125 12.375C16.3125 14.5462 14.5462 16.3125 12.375 16.3125H5.625C3.45375 16.3125 1.6875 14.5462 1.6875 12.375V5.625C1.6875 3.45375 3.45375 1.6875 5.625 1.6875H12.375C14.5462 1.6875 16.3125 3.45375 16.3125 5.625V12.375Z" fill="#848484"/>
</svg>
