<svg width="14.000000" height="13.000000" viewBox="0 0 14 13" fill="none" xmlns="http://www.w3.org/2000/svg" xmlns:xlink="http://www.w3.org/1999/xlink">
	<desc>
			Created with Pixso.
	</desc>
	<defs/>
	<rect id="Mail" width="13.000000" height="13.000000" transform="translate(0.500000 0.000000)" fill="#FFFFFF" fill-opacity="0"/>
	<path id="Rectangle 335" d="M11.5 2.16699C12.6045 2.16699 13.5 3.0625 13.5 4.16699L13.5 9.375C13.5 10.4795 12.6045 11.375 11.5 11.375L2.5 11.375C1.39551 11.375 0.5 10.4795 0.5 9.375L0.5 4.16699C0.5 3.0625 1.39551 2.16699 2.5 2.16699L11.5 2.16699Z" stroke="#EFEFEF" stroke-opacity="0.500000" stroke-width="1.000000" stroke-linejoin="round"/>
	<path id="Rectangle 336" d="M11.5723 2.16699C12.2559 2.16699 12.583 3.00781 12.0791 3.46973L9.02734 6.2666C7.87988 7.31836 6.12012 7.31836 4.97266 6.2666L1.9209 3.46973C1.41699 3.00781 1.74414 2.16699 2.42773 2.16699L11.5723 2.16699Z" stroke="#EFEFEF" stroke-opacity="0.500000" stroke-width="1.000000" stroke-linejoin="round"/>
</svg>
