<svg width="13.000000" height="13.000000" viewBox="0 0 13 13" fill="none" xmlns="http://www.w3.org/2000/svg" xmlns:xlink="http://www.w3.org/1999/xlink">
	<desc>
			Created with Pixso.
	</desc>
	<defs/>
	<rect id="Call" width="13.000000" height="13.000000" fill="#FFFFFF" fill-opacity="0"/>
	<path id="Call" d="M9.95703 1.13574C9.16406 1.04785 8.39551 1.43848 7.99902 2.13086L7.67188 2.70508C7.3457 3.27637 7.44141 3.99512 7.90723 4.45996C8.25195 4.80566 8.39746 5.30469 8.16797 5.73535C7.96973 6.10742 7.64453 6.59277 7.11914 7.11914C6.59277 7.64551 6.10645 7.9707 5.73438 8.16895C5.30371 8.39746 4.80469 8.25195 4.45996 7.90723C3.99512 7.44238 3.27539 7.3457 2.7041 7.67188L2.13086 8C1.43848 8.39551 1.04688 9.16504 1.13477 9.95703L1.19629 10.5078C1.2998 11.4375 2.04688 12.1514 2.96289 11.9619C4.3291 11.6797 6.42578 10.877 8.65137 8.65039C10.877 6.4248 11.6797 4.32812 11.9619 2.96289C12.1514 2.04688 11.4375 1.2998 10.5078 1.19727L9.95703 1.13574Z" stroke="#EFEFEF" stroke-opacity="0.500000" stroke-width="1.000000" stroke-linejoin="round"/>
</svg>
