<svg width="24.000000" height="24.000000" viewBox="0 0 24 24" fill="none" xmlns="http://www.w3.org/2000/svg" xmlns:xlink="http://www.w3.org/1999/xlink">
	<desc>
			Created with Pixso.
	</desc>
	<defs/>
	<path id="Vector" d="M24 4.78223C24 2.14526 21.8032 0 19.1025 0C17.7788 0 16.5767 0.515381 15.6943 1.35132C14.4771 0.952393 13.2051 0.75 11.9058 0.75C5.27051 0.75 0 6.00562 0 12.3752C0 18.7932 5.33398 24 11.9023 24C18.4448 24 23.8125 18.833 23.8125 12.3752C23.8125 10.929 23.5439 9.52246 23.0151 8.18823C23.6685 7.01733 24 5.87305 24 4.78223ZM9.23584 13.543L8.36035 17.2466C8.25879 17.6763 7.90381 17.9622 7.47217 18.0034C7.02881 18.0459 6.63623 17.8262 6.4541 17.4302C6.24561 16.979 4.69727 13.6238 4.48877 13.1724L5.80029 9.41284C5.91699 9.07812 5.76123 8.71069 5.43604 8.55493L2.81982 7.30029C3.83643 5.56299 5.34033 4.16626 7.15918 3.2644L7.15918 4.91528C7.15918 5.24756 7.39697 5.53442 7.72998 5.60327C8.24707 5.71021 10.7778 6.23364 11.2944 6.34058C11.7729 6.43945 12.1436 6.78931 12.2656 7.24512C12.3799 7.67139 12.3008 7.37524 12.6025 8.50098C12.7041 8.88013 12.6143 9.29004 12.3662 9.59424C12.0151 10.0247 9.72607 12.8311 9.37402 13.2629C9.30713 13.345 9.25977 13.4407 9.23584 13.543ZM11.1709 22.5691L11.5557 21.7761C11.6372 21.6089 11.729 21.5391 11.9111 21.4395C12.0156 21.3831 12.644 21.0774 12.7075 21.0547C12.9927 20.9521 13.3184 21.0408 13.5063 21.282L14.3169 22.3208C13.2905 22.5569 12.2271 22.6406 11.1709 22.5691ZM18.665 20.1768L17.7769 19.614L17.3687 15.9226C17.3291 15.5642 17.4243 15.2039 17.6367 14.9082L18.2324 14.0803L19.6348 12.1321C20.3906 11.5212 21.3037 10.6018 22.0093 9.69531C22.2505 10.5632 22.3721 11.4602 22.3721 12.3752C22.3721 15.4951 20.9429 18.2913 18.665 20.1768ZM19.1021 10.7173C17.4487 9.24048 15.6455 6.96777 15.645 4.78345C15.645 4.78296 15.645 4.78271 15.645 4.78223C15.645 2.93311 17.1836 1.40625 19.1025 1.40625C21.0088 1.40625 22.5596 2.92065 22.5596 4.78223C22.5596 6.97656 20.7607 9.22363 19.1021 10.7173Z" fill="#403A3A" fill-opacity="1.000000" fill-rule="nonzero"/>
</svg>
