<svg width="24.000000" height="24.000000" viewBox="0 0 24 24" fill="none" xmlns="http://www.w3.org/2000/svg" xmlns:xlink="http://www.w3.org/1999/xlink">
	<desc>
			Created with Pixso.
	</desc>
	<defs/>
	<path id="Vector" d="M23.77 0.230713C22.9927 -0.54834 20.355 0.83252 19.5781 1.61157L16.4658 4.7312L2.30908 4.7312C1.97266 4.7312 1.68359 4.97095 1.62061 5.30249C1.55762 5.63379 1.73828 5.96313 2.05127 6.08716L11.4131 9.79565L5.67236 15.5496L0.243164 15.5496C0.126465 15.5498 0.0258789 15.6328 0.00439453 15.7478C-0.0175781 15.863 0.0449219 15.9771 0.153809 16.0198L4.72266 17.8298C4.74902 17.9448 4.78564 18.0574 4.83301 18.1675L4.6333 18.3682C4.34814 18.6533 4.34814 19.1157 4.6333 19.4011C4.91748 19.6868 5.37939 19.6868 5.66406 19.4011L5.85889 19.2058C5.96973 19.2546 6.0835 19.2932 6.19971 19.3208L7.96094 23.845C8.00342 23.9541 8.11719 24.0171 8.23193 23.9958C8.28125 23.9871 8.3252 23.9624 8.35889 23.9285C8.40332 23.8845 8.43018 23.8235 8.43018 23.7563L8.43018 18.4285L14.2617 12.5833L17.9263 21.998C18.0488 22.3125 18.3779 22.4954 18.709 22.4331C18.8521 22.406 18.978 22.3367 19.0747 22.24C19.2026 22.1113 19.2803 21.9348 19.2808 21.7424L19.2808 7.55249L22.3931 4.43286C23.1699 3.65381 24.5469 1.00977 23.77 0.230713Z" fill="#403A3A" fill-opacity="1.000000" fill-rule="nonzero"/>
</svg>
