<svg width="30.000000" height="24.000000" viewBox="0 0 30 24" fill="none" xmlns="http://www.w3.org/2000/svg" xmlns:xlink="http://www.w3.org/1999/xlink">
	<desc>
			Created with Pixso.
	</desc>
	<defs/>
	<path id="Vector" d="M9.86182 21.8774C9.8457 22.0557 9.85938 22.2417 9.91846 22.426C10.062 22.8706 10.3999 23.2327 10.7993 23.3691C11.1709 23.4988 11.5405 23.4126 11.6528 23.2781L12.4277 22.3611C12.6519 22.0967 12.7085 21.6743 12.5767 21.2644C12.2524 20.5791 11.8179 20.332 11.2617 20.2212L9.86182 21.8774Z" fill="#403A3A" fill-opacity="1.000000" fill-rule="nonzero"/>
	<path id="Vector" d="M8.82471 17.2925L7.47021 18.8943C7.19531 19.2244 7.11621 19.7317 7.27002 20.218C7.43311 20.7317 7.82227 21.1494 8.28809 21.3057C8.729 21.4512 9.17139 21.3381 9.44824 21.0129L10.7026 19.5298C10.9795 19.2007 11.0566 18.6958 10.9028 18.2095C10.7397 17.6934 10.3486 17.2771 9.88477 17.1218C9.51465 16.9917 9.08057 16.9866 8.82471 17.2925Z" fill="#403A3A" fill-opacity="1.000000" fill-rule="nonzero"/>
	<path id="Vector" d="M6.13965 14.6567L4.88916 16.1375C4.61377 16.4648 4.53662 16.9741 4.68896 17.4619C4.85205 17.9739 5.24121 18.3918 5.70703 18.5479C6.14697 18.6956 6.59375 18.5803 6.7334 18.4175L8.12158 16.7747C8.39893 16.4446 8.47559 15.9373 8.32227 15.4519C8.1582 14.9365 7.76904 14.5203 7.30322 14.3657C6.875 14.2119 6.40088 14.3486 6.13965 14.6567Z" fill="#403A3A" fill-opacity="1.000000" fill-rule="nonzero"/>
	<path id="Vector" d="M3.69336 11.738L2.30713 13.3818C2.03027 13.7112 1.95312 14.2161 2.10693 14.6997C2.26807 15.2175 2.65967 15.6338 3.12549 15.7898C3.56592 15.9346 4.01221 15.8223 4.1499 15.6575L5.53955 14.0146L5.53955 14.0129C5.81689 13.6877 5.89404 13.1821 5.74023 12.6968C5.57959 12.179 5.18799 11.7627 4.72217 11.6082C4.36621 11.4729 3.93555 11.4497 3.69336 11.738Z" fill="#403A3A" fill-opacity="1.000000" fill-rule="nonzero"/>
	<path id="Vector" d="M21.6895 1.93506C20.793 2.48779 19.5469 2.58691 18.333 2.68311C17.415 2.7522 16.4678 2.82544 15.7871 3.10254L12.0029 4.64233C11.9771 4.65356 11.9512 4.66016 11.9238 4.66431C11.7412 4.69604 11.5718 4.72314 11.4204 4.74634C10.4985 4.88965 10.3921 4.93335 10.2861 5.23413C10.1895 5.51221 10.2954 5.91309 10.5576 6.25366C10.7715 6.5332 11.6074 7.40649 13.3276 6.95752L15.4829 6.64355C16.6899 6.47217 17.6572 7.3396 18.4302 8.03979L24.2256 13.1521L24.2305 13.1494C25.376 12.6208 26.5698 11.9333 27.5845 10.5854L21.6895 1.93506Z" fill="#403A3A" fill-opacity="1.000000" fill-rule="nonzero"/>
	<path id="Vector" d="M13.7148 1.62451C13.3716 1.65942 12.978 1.70728 12.5649 1.75464C10.2808 2.02368 9.01416 2.12939 8.36963 1.9978L2.43945 10.5088C2.65771 10.7366 2.83838 10.9729 2.98438 11.2288C3.47998 10.6694 4.229 10.4697 4.95801 10.7126C5.67383 10.9509 6.27148 11.5906 6.52148 12.3843C6.62744 12.7202 6.66064 13.0649 6.6333 13.395C6.92627 13.3496 7.23535 13.3684 7.53955 13.4707C8.25342 13.7073 8.85303 14.3486 9.10107 15.1423C9.20898 15.4766 9.24268 15.8206 9.21729 16.1506C9.50977 16.1052 9.81885 16.1243 10.123 16.2288C10.8354 16.4668 11.4326 17.1067 11.6826 17.8962C11.8398 18.397 11.8457 18.9124 11.7183 19.3743C11.791 19.3896 11.8657 19.4094 11.9399 19.4351C12.5791 19.6536 13.1221 20.2327 13.3555 20.9465C13.5786 21.6375 13.4819 22.3635 13.1157 22.8845L14.168 23.8123C14.4253 24.0376 14.8008 24.062 15.1509 23.8748C15.5308 23.6716 15.8179 23.2593 15.9023 22.7976C15.938 22.6047 15.9263 22.418 15.8862 22.2449L14.5518 21.0676C14.3721 20.9089 14.3403 20.6165 14.4805 20.4133C14.6221 20.2119 14.8818 20.1743 15.0625 20.333L16.6665 21.7507C16.8262 21.8914 17.2822 21.929 17.7012 21.7117C18.1411 21.4797 18.4736 21.002 18.5659 20.4688C18.6543 19.9646 18.5127 19.4758 18.1978 19.1963L16.7466 17.9158C16.5659 17.7573 16.5342 17.4639 16.6758 17.2632C16.8159 17.0593 17.0771 17.0217 17.2559 17.1829L19.3657 19.043C19.6826 19.321 20.1382 19.3594 20.5591 19.1428C20.9956 18.9128 21.3281 18.4358 21.4224 17.8967C21.5107 17.3926 21.3691 16.9055 21.0513 16.6233L18.9409 14.7656C18.7598 14.6055 18.7285 14.3127 18.8696 14.1082C19.0112 13.9075 19.271 13.8726 19.4521 14.0305C19.4521 14.0305 22.6567 16.8557 22.6587 16.8557C22.8184 16.9939 23.2725 17.033 23.689 16.8132C24.1299 16.5864 24.4604 16.1094 24.5562 15.572C24.6431 15.0671 24.5015 14.5767 24.1846 14.2996L17.9131 8.76562C17.1938 8.11499 16.4502 7.44116 15.5869 7.56885L13.4751 7.8728C12.0518 8.24976 10.709 7.87695 9.93262 6.8645C9.46436 6.25488 9.30518 5.50049 9.51514 4.89404C9.81006 4.05273 10.375 3.96582 11.3071 3.82104C11.4463 3.80151 11.5962 3.77734 11.7612 3.74854L15.5068 2.2251C15.75 2.12524 16.0195 2.05615 16.2988 1.99487C15.3354 1.58398 14.6377 1.55957 13.7148 1.62451Z" fill="#403A3A" fill-opacity="1.000000" fill-rule="nonzero"/>
	<path id="Vector" d="M5.5752 0.0117188C4.89307 -0.0454102 4.27002 0.521729 3.37354 1.80908L1.08057 5.10229C0.250977 6.29028 -0.0595703 7.02905 0.00927734 7.65527C0.0644531 8.16968 0.38916 8.67456 0.710938 8.95923L1.79883 9.91699L7.70459 1.44116L6.93994 0.766357C6.41455 0.304443 5.98438 0.0466309 5.5752 0.0117188Z" fill="#403A3A" fill-opacity="1.000000" fill-rule="nonzero"/>
	<path id="Vector" d="M24.5132 0.00268555C24.104 0.0310059 23.6699 0.283447 23.1406 0.73877L22.3677 1.39966L28.1919 9.94482L28.9443 9.29907C29.5957 8.74219 29.9277 8.2439 29.9888 7.72998C30.064 7.10547 29.7627 6.36084 28.9468 5.15747L26.6914 1.83252C25.8125 0.531738 25.1973 -0.0454102 24.5132 0.00268555Z" fill="#403A3A" fill-opacity="1.000000" fill-rule="nonzero"/>
</svg>
