<svg width="30.000000" height="24.000000" viewBox="0 0 30 24" fill="none" xmlns="http://www.w3.org/2000/svg" xmlns:xlink="http://www.w3.org/1999/xlink">
	<desc>
			Created with Pixso.
	</desc>
	<defs/>
	<path id="Vector" d="M14.0625 16.3635C13.8638 16.3628 13.668 16.3147 13.4858 16.2217L4.6875 11.6345L4.6875 17.7217C4.6875 17.8267 4.71387 17.9294 4.7627 18.0176C4.81201 18.1055 4.88184 18.1753 4.96387 18.2183L13.8701 22.8599C13.9307 22.8923 13.9961 22.9092 14.0625 22.9092C14.1289 22.9092 14.1943 22.8923 14.2549 22.8599L23.1611 18.2183C23.2432 18.1753 23.313 18.1055 23.3623 18.0176C23.4111 17.9294 23.4375 17.8267 23.4375 17.7217L23.4375 11.6345L14.6392 16.2217C14.4575 16.3147 14.2612 16.3628 14.0625 16.3635Z" fill="#403A3A" fill-opacity="1.000000" fill-rule="nonzero"/>
	<path id="Vector" d="M29.7915 19.1826L28.5938 18.2534L28.5938 8.18188C28.5918 7.89307 28.4927 7.61694 28.3174 7.41284C28.1416 7.20874 27.9043 7.09302 27.6562 7.09082L14.5312 7.09082C14.4067 7.09082 14.2876 7.03345 14.1997 6.93115C14.1118 6.82886 14.0625 6.69019 14.0625 6.54541C14.0625 6.40088 14.1118 6.26196 14.1997 6.15967C14.2876 6.05737 14.4067 6 14.5312 6L25.6641 6L14.2549 0.0490723C14.1943 0.0168457 14.1289 0 14.0625 0C13.9961 0 13.9307 0.0168457 13.8701 0.0490723L0.276367 7.13989C0.194336 7.18286 0.124023 7.25244 0.0751953 7.34058C0.0258789 7.42871 0 7.53149 0 7.63647C0 7.74146 0.0258789 7.84399 0.0751953 7.93213C0.124023 8.02026 0.194336 8.08984 0.276367 8.13281L13.8701 15.2236C13.9307 15.2559 13.9961 15.2727 14.0625 15.2727C14.1289 15.2727 14.1943 15.2559 14.2549 15.2236L27.6562 8.23291L27.6562 18.2534L26.4585 19.1826C26.3945 19.2324 26.3418 19.2998 26.3057 19.3789C26.269 19.4583 26.25 19.5466 26.25 19.6365L26.25 23.4546C26.25 23.5991 26.2993 23.738 26.3872 23.8403C26.4751 23.9426 26.5942 24 26.7188 24L29.5312 24C29.6558 24 29.7749 23.9426 29.8628 23.8403C29.9507 23.738 30 23.5991 30 23.4546L30 19.6365C30 19.5466 29.981 19.4583 29.9443 19.3789C29.9082 19.2998 29.8555 19.2324 29.7915 19.1826Z" fill="#403A3A" fill-opacity="1.000000" fill-rule="nonzero"/>
</svg>
