<svg width="27.500000" height="22.000000" viewBox="0 0 27.5 22" fill="none" xmlns="http://www.w3.org/2000/svg" xmlns:xlink="http://www.w3.org/1999/xlink">
	<desc>
			Created with Pixso.
	</desc>
	<defs/>
	<path id="Vector" d="M25.2085 3.30005L19.479 3.30005L19.479 2.19995C19.479 0.986816 18.4512 0 17.1875 0L10.3125 0C9.04883 0 8.021 0.986572 8.021 2.19995L8.021 3.30005L2.2915 3.30005C1.02783 3.30005 0 4.28662 0 5.5L0 8.80005C0 10.0134 1.02783 11 2.2915 11L11.4585 11L11.4585 10.45C11.4585 10.146 11.7148 9.8999 12.0312 9.8999L15.4688 9.8999C15.7856 9.8999 16.0415 10.146 16.0415 10.45L16.0415 11L25.2085 11C26.4722 11 27.5 10.0134 27.5 8.80005L27.5 5.5C27.5 4.28662 26.4722 3.30005 25.2085 3.30005ZM17.1875 3.30005L10.3125 3.30005L10.3125 2.19995L17.1875 2.19995L17.1875 3.30005Z" fill="#403A3A" fill-opacity="1.000000" fill-rule="nonzero"/>
	<path id="Vector" d="M27.1821 11.5935C26.9868 11.5005 26.7534 11.522 26.5811 11.6477C26.1738 11.9436 25.6992 12.1001 25.208 12.1001L16.0415 12.1001L16.0415 13.75C16.0415 14.054 15.7852 14.3 15.4688 14.3L12.0312 14.3C11.7144 14.3 11.4585 14.054 11.4585 13.75L11.4585 12.1001L2.2915 12.1001C1.80029 12.1001 1.32617 11.9436 0.918457 11.6477C0.745605 11.521 0.513184 11.4995 0.317871 11.5935C0.123047 11.6865 0 11.8772 0 12.0859L0 19.8C0 21.0132 1.02783 22 2.2915 22L25.2085 22C26.4722 22 27.5 21.0134 27.5 19.8L27.5 12.0859C27.5 11.8772 27.377 11.6865 27.1821 11.5935Z" fill="#403A3A" fill-opacity="1.000000" fill-rule="nonzero"/>
</svg>
