<svg width="24.000000" height="24.000000" viewBox="0 0 24 24" fill="none" xmlns="http://www.w3.org/2000/svg" xmlns:xlink="http://www.w3.org/1999/xlink">
	<desc>
			Created with Pixso.
	</desc>
	<defs/>
	<path id="Vector" d="M12 16.884C11.7402 17.0486 11.4688 17.1973 11.189 17.3311L11.189 24L12.811 24L12.811 17.3311C12.5312 17.1973 12.2598 17.0486 12 16.884Z" fill="#403A3A" fill-opacity="1.000000" fill-rule="nonzero"/>
	<path id="Vector" d="M19.4707 5.59985C19.2256 4.12939 18.4106 2.77734 17.1436 1.75415C15.7427 0.623047 13.916 0 12 0C10.0845 0 8.25781 0.623047 6.85645 1.75415C5.58936 2.77734 4.77441 4.12939 4.5293 5.59985C1.7998 6.63306 0 8.98999 0 11.5989C0 15.2073 3.38623 18.1428 7.54883 18.1428C8.83154 18.1428 10.082 17.8596 11.189 17.3311L11.189 14.4688L7.55078 12.8105L8.30566 11.5659L11.189 12.8801L11.189 6.99512L12.811 6.99512L12.811 9.76318L15.6943 8.44897L16.4492 9.69385L12.811 11.3521L12.811 17.3311C13.918 17.8596 15.1685 18.1428 16.4512 18.1428C20.6138 18.1428 24 15.2073 24 11.5989C24 8.98999 22.2002 6.63306 19.4707 5.59985Z" fill="#403A3A" fill-opacity="1.000000" fill-rule="nonzero"/>
</svg>
