<svg width="30.000000" height="24.000244" viewBox="0 0 30 24.0002" fill="none" xmlns="http://www.w3.org/2000/svg" xmlns:xlink="http://www.w3.org/1999/xlink">
	<desc>
			Created with Pixso.
	</desc>
	<defs/>
	<path id="Vector" d="M15.6821 3.47192L15.6821 1.71411L17.0459 1.71411C17.4224 1.71411 17.7275 1.33032 17.7275 0.856934C17.7275 0.383545 17.4224 0 17.0459 0L12.9551 0C12.5781 0 12.2729 0.383545 12.2729 0.856934C12.2729 1.33032 12.5781 1.71411 12.9551 1.71411L14.3184 1.71411L14.3184 3.47192C7.82227 3.92944 2.73779 10.678 2.72754 18.8572L27.2729 18.8572C27.2622 10.678 22.1782 3.92944 15.6821 3.47192ZM12.9551 10.2859C11.9556 10.2859 10.1055 10.885 9.51025 13.1284C9.43848 13.427 9.24316 13.6531 9.00049 13.7183C8.75781 13.7839 8.50635 13.678 8.34326 13.4426C8.18018 13.2073 8.13184 12.8789 8.21729 12.5859C8.95117 10.1118 10.855 8.49805 12.9551 8.57129C13.3315 8.57129 13.6367 8.95508 13.6367 9.42847C13.6367 9.90186 13.3315 10.2859 12.9551 10.2859Z" fill="#403A3A" fill-opacity="1.000000" fill-rule="nonzero"/>
	<path id="Vector" d="M28.6362 20.5718L1.36377 20.5718C0.610352 20.5718 0 21.3394 0 22.2859C0 23.2327 0.610352 24.0002 1.36377 24.0002L28.6362 24.0002C29.3896 24.0002 30 23.2327 30 22.2859C30 21.3394 29.3896 20.5718 28.6362 20.5718Z" fill="#403A3A" fill-opacity="1.000000" fill-rule="nonzero"/>
</svg>
