<svg width="18.000000" height="24.000000" viewBox="0 0 18 24" fill="none" xmlns="http://www.w3.org/2000/svg" xmlns:xlink="http://www.w3.org/1999/xlink">
	<desc>
			Created with Pixso.
	</desc>
	<defs/>
	<path id="oversized-wine-glass-2" d="M9.96777 20.9863L9.96777 12.7754C14.6606 12.3328 18 9.09692 18 5.40601C18 4.01074 17.5293 2.27515 16.7139 0.592773C16.5405 0.234863 16.1196 0 15.6519 0L2.34082 0C1.87256 0 1.45166 0.234863 1.27832 0.592773C0.541992 2.11182 -0.0297852 3.90234 0.000976562 5.55493C0.000976562 5.5564 0.00195312 5.55786 0.00195312 5.55933C0.0922852 9.19971 3.4043 12.3503 8.02441 12.7754L8.02441 20.9863C4.96533 21.1926 2.62061 22.312 2.62061 22.875C2.62061 23.4968 5.47461 24 8.99658 24C12.5181 24 15.3726 23.4968 15.3726 22.875C15.3726 22.312 13.0269 21.1924 9.96777 20.9863ZM2.89062 1.6001L15.1016 1.6001C15.7114 2.96924 16.0566 4.33643 16.0566 5.40601C16.0566 5.66577 16.0288 5.92017 15.9883 6.17114C15.3809 6.04663 14.751 6.03003 14.0757 6.22803C12.3115 6.74536 11.168 7.07642 9.37305 6.49707C7.58838 5.92017 6.46094 3.30078 4.3208 3.5C3.4707 3.57886 2.74121 3.80908 2.08252 4.12891C2.23535 3.33521 2.50195 2.47266 2.89062 1.6001Z" fill="#403A3A" fill-opacity="1.000000" fill-rule="nonzero"/>
</svg>
