<svg width="69" height="53" viewBox="0 0 69 53" fill="none" xmlns="http://www.w3.org/2000/svg">
<g clip-path="url(#clip0_154_888)">
<path d="M0 52.6724C0.125781 52.6542 0.233594 52.5814 0.305469 52.4722C0.377344 52.363 0.449219 52.2356 0.521094 52.09L3.30625 46.1748C3.37812 46.0474 3.43203 45.92 3.48594 45.8108C3.53984 45.7016 3.57578 45.6106 3.57578 45.5196C3.57578 45.4104 3.53984 45.3558 3.46797 45.3012C3.39609 45.2648 3.32422 45.2284 3.23438 45.2102V44.9372H5.76797V45.2102C5.69609 45.2284 5.62422 45.2648 5.55234 45.3012C5.48047 45.3376 5.44453 45.4104 5.44453 45.5196C5.44453 45.5924 5.4625 45.6834 5.49844 45.7562C5.53438 45.829 5.58828 45.9382 5.66016 46.0838L8.78672 52.272C8.84062 52.3812 8.9125 52.4722 8.98438 52.5086C9.07422 52.5632 9.16406 52.6178 9.27187 52.6542V52.9272H6.66641V52.6542C6.70234 52.6542 6.75625 52.636 6.81016 52.5996C6.86406 52.5632 6.9 52.5268 6.9 52.454C6.9 52.3448 6.86406 52.2174 6.77422 52.0536L6.19922 50.9252H2.53359L1.99453 51.999C1.88672 52.2174 1.85078 52.363 1.85078 52.454C1.85078 52.5632 1.94062 52.6178 2.13828 52.6178V52.8908H0V52.6724ZM5.66016 49.8513L4.40234 47.0121L2.98281 49.8513H5.66016Z" fill="white"/>
<path d="M13.0988 50.4337L13.2426 50.5065C13.2426 50.5975 13.2605 50.6703 13.2965 50.7431C13.3684 50.8705 13.5121 50.9797 13.7098 51.1072C13.9074 51.2164 14.159 51.3256 14.4105 51.4166C14.6801 51.5076 14.9496 51.5804 15.2371 51.635C15.5246 51.6896 15.7941 51.726 16.0277 51.726C16.1895 51.726 16.423 51.7078 16.6926 51.6896C16.9621 51.6714 17.2316 51.6168 17.4832 51.5258C17.7348 51.453 17.9684 51.3256 18.166 51.1982C18.3637 51.0526 18.4535 50.8706 18.4535 50.6339C18.4535 50.3973 18.3637 50.2335 18.184 50.1243C18.0043 50.0151 17.7707 49.9241 17.5012 49.8877C17.2137 49.8331 16.8902 49.7967 16.5309 49.7967C16.1715 49.7785 15.7941 49.7603 15.4168 49.7239C15.0395 49.6875 14.6621 49.6511 14.3027 49.5783C13.9434 49.5055 13.6199 49.3963 13.3324 49.2143C13.0449 49.0505 12.8113 48.8139 12.6496 48.5227C12.4699 48.2315 12.3801 47.8493 12.3801 47.3942C12.3801 47.0848 12.452 46.7754 12.5957 46.466C12.7395 46.1566 12.9551 45.8836 13.2605 45.6652C13.566 45.4286 13.9434 45.2466 14.4105 45.101C14.8777 44.9554 15.4168 44.8826 16.0277 44.8826C16.5668 44.8826 17.016 44.919 17.4113 45.01C17.8066 45.0828 18.148 45.1738 18.4176 45.2648C18.7051 45.3558 18.9387 45.4468 19.1363 45.5196C19.334 45.5924 19.4957 45.647 19.6215 45.647C19.7652 45.647 19.8551 45.6106 19.927 45.556L20.1066 45.6834L19.0645 47.5944L18.9207 47.5398C18.9027 47.3942 18.8668 47.285 18.7949 47.194C18.723 47.0666 18.5793 46.9574 18.3996 46.83C18.2199 46.7208 18.0043 46.6116 17.7527 46.5206C17.5012 46.4296 17.2316 46.3568 16.9441 46.3022C16.6566 46.2476 16.3691 46.2112 16.0637 46.2112C15.848 46.2112 15.6145 46.2294 15.3809 46.2658C15.1473 46.3022 14.9316 46.3568 14.734 46.4296C14.5363 46.5024 14.3926 46.5934 14.2668 46.7026C14.141 46.8118 14.0871 46.9574 14.0871 47.1394C14.0871 47.376 14.177 47.558 14.3566 47.6855C14.5363 47.8129 14.7699 47.9039 15.0395 47.9585C15.327 48.0131 15.6504 48.0677 16.0098 48.0859C16.3691 48.1041 16.7465 48.1405 17.1238 48.1587C17.5012 48.1951 17.8785 48.2497 18.2379 48.3225C18.5973 48.3953 18.9207 48.5227 19.2082 48.6865C19.4957 48.8503 19.7293 49.0869 19.891 49.3599C20.0707 49.6511 20.1605 50.0151 20.1605 50.4701C20.1605 50.9979 20.0168 51.4348 19.7473 51.7624C19.4777 52.09 19.1363 52.363 18.723 52.5632C18.3098 52.7634 17.8605 52.8908 17.3934 52.9454C16.9082 53.0182 16.477 53.0364 16.0637 53.0364C15.4887 53.0364 15.0215 53 14.6262 52.9454C14.2488 52.8726 13.9254 52.7998 13.6559 52.7088C13.4043 52.6178 13.1887 52.5268 13.0449 52.454C12.9012 52.3812 12.7574 52.3448 12.6496 52.3448C12.5777 52.3448 12.5059 52.3812 12.452 52.4722L12.2363 52.3448L13.0988 50.4337Z" fill="white"/>
<path d="M31.2301 47.4124L30.9246 47.3214C30.9426 47.2668 30.9605 47.194 30.9605 47.1394C30.9605 46.9938 30.8707 46.8482 30.691 46.7208C30.5113 46.5934 30.2777 46.5024 29.9902 46.4114C29.7027 46.3204 29.3973 46.2658 29.0559 46.2294C28.7145 46.193 28.409 46.1748 28.1035 46.1748C27.7262 46.1748 27.3668 46.2294 27.0074 46.3386C26.648 46.4478 26.3246 46.6116 26.0371 46.83C25.7496 47.0484 25.516 47.3396 25.3543 47.7036C25.1746 48.0677 25.0848 48.4863 25.0848 48.9959C25.0848 49.4873 25.1746 49.9241 25.3543 50.2881C25.534 50.6521 25.7676 50.9433 26.0371 51.1617C26.3246 51.3802 26.648 51.544 27.0074 51.6532C27.3668 51.7624 27.7441 51.817 28.1035 51.817C28.6785 51.817 29.1816 51.7624 29.6488 51.6714C30.098 51.5804 30.4934 51.4712 30.8168 51.362V50.0515H28.8941C28.7504 50.0515 28.6426 50.0879 28.5707 50.1425C28.4988 50.1971 28.4629 50.3427 28.427 50.5429H28.1574V48.5955H28.427C28.4449 48.7593 28.4988 48.8685 28.5707 48.9231C28.6426 48.9777 28.7504 48.9959 28.8941 48.9959H32.6496V49.2689C32.452 49.3053 32.3262 49.3417 32.2723 49.3781C32.2184 49.4145 32.2004 49.5055 32.2004 49.6329V51.362C32.2004 51.4712 32.2363 51.5258 32.2902 51.5622C32.3441 51.5986 32.416 51.635 32.5059 51.6714V51.908C32.1824 52.1446 31.823 52.3266 31.4637 52.4904C31.1043 52.636 30.727 52.7634 30.3496 52.8544C29.9723 52.9454 29.5949 53 29.2176 53.0182C28.8402 53.0364 28.4809 53.0546 28.1215 53.0546C27.4207 53.0546 26.7738 52.9636 26.1988 52.7816C25.6238 52.5996 25.1207 52.3448 24.7254 51.9808C24.3121 51.635 23.9887 51.1981 23.773 50.7067C23.5395 50.1971 23.4316 49.6329 23.4316 48.9959C23.4316 48.3589 23.5395 47.7764 23.773 47.285C24.0066 46.7754 24.3121 46.3568 24.7254 45.9928C25.1387 45.6288 25.6238 45.374 26.1988 45.1738C26.7738 44.9918 27.4207 44.9008 28.1215 44.9008C28.5707 44.9008 28.984 44.9372 29.3793 44.9918C29.7746 45.0464 30.134 45.1192 30.4395 45.192C30.7449 45.2648 31.0145 45.3376 31.2121 45.4104C31.4098 45.4832 31.5535 45.5014 31.5895 45.5014C31.6793 45.5014 31.7512 45.4832 31.8051 45.4468C31.859 45.4104 31.9129 45.374 31.9488 45.3376L32.1285 45.4468L31.2301 47.4124Z" fill="white"/>
<path d="M35.4168 52.6724C35.5426 52.6542 35.6504 52.5814 35.7223 52.4722C35.7941 52.363 35.866 52.2356 35.9379 52.09L38.723 46.1748C38.7949 46.0474 38.8488 45.92 38.9027 45.8108C38.9566 45.7016 38.9926 45.6106 38.9926 45.5196C38.9926 45.4104 38.9566 45.3557 38.8848 45.3011C38.8129 45.2647 38.741 45.2283 38.6512 45.2101V44.9371H41.1848V45.2101C41.1129 45.2283 41.041 45.2647 40.9691 45.3011C40.8973 45.3375 40.8613 45.4104 40.8613 45.5196C40.8613 45.5924 40.8793 45.6834 40.9152 45.7562C40.9512 45.829 41.0051 45.9382 41.077 46.0838L44.2035 52.272C44.2574 52.3812 44.3293 52.4722 44.4012 52.5086C44.491 52.5632 44.5809 52.6178 44.6887 52.6542V52.9272H42.0473V52.6542C42.0832 52.6542 42.1371 52.636 42.191 52.5996C42.2449 52.5632 42.2809 52.5268 42.2809 52.454C42.2809 52.3448 42.2449 52.2174 42.1551 52.0535L41.5801 50.9251H37.9145L37.3754 51.999C37.2676 52.2174 37.2316 52.363 37.2316 52.454C37.2316 52.5632 37.3215 52.6178 37.5191 52.6178V52.8908H35.3809V52.6724H35.4168ZM41.077 49.8513L39.8191 47.012L38.3996 49.8513H41.077Z" fill="white"/>
<path d="M52.9711 44.9372C53.4562 44.9372 53.8875 44.9736 54.2828 45.0646C54.6781 45.1556 55.0016 45.283 55.2891 45.4832C55.5766 45.6652 55.7922 45.92 55.9359 46.2112C56.0797 46.5024 56.1695 46.8846 56.1695 47.3214C56.1695 47.9949 55.9719 48.5045 55.5766 48.8503C55.1812 49.2143 54.6602 49.4509 53.9953 49.5601L55.9898 52.454C56.0617 52.5632 56.1336 52.6178 56.2414 52.636C56.3312 52.6542 56.4211 52.6724 56.5109 52.6724V52.9454H53.7078V52.6724C53.7977 52.6724 53.8695 52.6542 53.9414 52.6178C54.0133 52.5814 54.0312 52.545 54.0312 52.4904C54.0312 52.4358 54.0133 52.3812 53.9773 52.3084C53.9414 52.2356 53.8695 52.1446 53.7977 52.0354L52.1445 49.6511H49.9883V52.363C49.9883 52.454 50.0242 52.5268 50.0781 52.5632C50.15 52.6178 50.2578 52.636 50.4375 52.636V52.909H47.832V52.636C48.1195 52.636 48.2633 52.545 48.2633 52.363V45.4468C48.2633 45.2648 48.1195 45.1738 47.832 45.1738V44.9008H52.9711V44.9372ZM52.5758 48.5045C52.9352 48.5045 53.2406 48.4681 53.4742 48.4135C53.7078 48.3589 53.9055 48.2861 54.0492 48.1769C54.193 48.0677 54.2828 47.9585 54.3547 47.8128C54.4086 47.6672 54.4445 47.5216 54.4445 47.3578C54.4445 47.194 54.4086 47.0484 54.3547 46.9028C54.3008 46.7572 54.193 46.648 54.0492 46.5388C53.9055 46.4296 53.7258 46.3568 53.4742 46.3022C53.2406 46.2476 52.9352 46.2112 52.5758 46.2112H49.9703V48.4681H52.5758V48.5045Z" fill="white"/>
<path d="M65.0832 44.9371C65.6402 44.9371 66.1434 45.0099 66.6285 45.1737C67.0957 45.3375 67.509 45.5742 67.8684 45.92C68.2277 46.2476 68.4973 46.6662 68.6949 47.1758C68.8926 47.6854 69.0004 48.2678 69.0004 48.9413C69.0004 49.6147 68.8926 50.2153 68.6949 50.7067C68.4973 51.2163 68.2277 51.6167 67.8684 51.9625C67.509 52.2902 67.0957 52.545 66.6285 52.7088C66.1613 52.8726 65.6402 52.9454 65.0832 52.9454H60.0879V52.6724C60.3215 52.6724 60.4293 52.5814 60.4293 52.3994V45.4832C60.4293 45.3011 60.3215 45.2101 60.0879 45.2101V44.9371H65.0832ZM64.4902 51.6349C64.9574 51.6349 65.3707 51.5985 65.7301 51.5075C66.0895 51.4347 66.377 51.2891 66.6105 51.0707C66.8441 50.8705 67.0059 50.5793 67.1316 50.2335C67.2395 49.8877 67.3113 49.4509 67.3113 48.9231C67.3113 48.3952 67.2574 47.9584 67.1316 47.6126C67.0238 47.2668 66.8441 46.9938 66.6105 46.7754C66.377 46.5752 66.0895 46.4296 65.7301 46.3386C65.3707 46.2658 64.9754 46.2112 64.4902 46.2112H62.1543V51.5985H64.4902V51.6349Z" fill="white"/>
<path d="M34.3391 0C23.7914 0 15.2383 8.66346 15.2383 19.3472C15.2383 22.2957 15.8852 25.0804 17.0531 27.5738C17.125 27.5374 17.2148 27.5192 17.2867 27.4828C17.3406 27.4282 17.4125 27.3736 17.4664 27.319C16.3523 24.8984 15.7234 22.1865 15.7234 19.329C15.7234 8.91827 24.0609 0.491415 34.3391 0.491415C44.6172 0.491415 52.9547 8.93647 52.9547 19.3472C52.9547 22.2411 52.3078 24.9712 51.1578 27.4282C51.2836 27.5374 51.4094 27.6466 51.5352 27.7558C52.757 25.2078 53.4398 22.3685 53.4398 19.3472C53.4219 8.66346 44.8867 0 34.3391 0Z" fill="url(#paint0_linear_154_888)"/>
<path d="M53.5117 32.1786V37.657C54.1227 37.9482 54.7336 38.2576 55.3266 38.5852V33.4526C54.7156 33.034 54.1227 32.6154 53.5117 32.1786Z" fill="url(#paint1_linear_154_888)"/>
<path d="M50.6367 36.3829C51.1039 36.5831 51.5891 36.7651 52.0563 36.9836V31.0866C51.5711 30.7226 51.1039 30.3404 50.6367 29.9399V36.3829Z" fill="url(#paint2_linear_154_888)"/>
<path d="M47.7793 35.3273C48.2465 35.4729 48.7137 35.6367 49.1809 35.8005V28.6295C48.7137 28.2109 48.2465 27.774 47.7793 27.319V35.3273Z" fill="url(#paint3_linear_154_888)"/>
<path d="M44.9395 34.5082C45.4066 34.6174 45.8559 34.7448 46.323 34.8904V25.8812C45.8559 25.3898 45.4066 24.8983 44.9395 24.3887V34.5082Z" fill="url(#paint4_linear_154_888)"/>
<path d="M22.0117 34.8905C22.4789 34.7631 22.9461 34.6175 23.4312 34.5083V24.4615C22.9641 24.9712 22.4969 25.4808 22.0117 25.9722V34.8905Z" fill="url(#paint5_linear_154_888)"/>
<path d="M19.1738 35.8187C19.623 35.6549 20.0902 35.4911 20.5574 35.3455V27.4282C20.1082 27.865 19.641 28.2836 19.1738 28.7023V35.8187Z" fill="url(#paint6_linear_154_888)"/>
<path d="M16.2793 36.9838C16.7465 36.7836 17.2316 36.5834 17.6988 36.3832V29.9766C17.2316 30.3588 16.7465 30.741 16.2793 31.1232V36.9838Z" fill="url(#paint7_linear_154_888)"/>
<path d="M13.0098 38.567C13.6027 38.2393 14.2137 37.9481 14.8246 37.6387V32.215C14.2316 32.6518 13.6207 33.0704 13.0098 33.4708V38.567Z" fill="url(#paint8_linear_154_888)"/>
<path d="M30.6191 33.5072C32.1645 33.307 34.7879 33.1432 37.7348 33.5254C35.2191 30.3221 34.177 28.1199 34.177 28.1199C34.177 28.1199 33.1168 30.3039 30.6191 33.5072Z" fill="#CA973B"/>
<path d="M42.0645 32.2514C42.5316 32.6882 43.0168 33.1068 43.484 33.5072V22.6779C42.9988 22.0955 42.5316 21.4948 42.0645 20.8942V32.2514Z" fill="url(#paint9_linear_154_888)"/>
<path d="M39.209 29.4121C39.6582 29.9035 40.1434 30.3949 40.6105 30.8681V18.8921C40.1254 18.2005 39.6582 17.5089 39.209 16.7991V29.4121Z" fill="url(#paint10_linear_154_888)"/>
<path d="M36.3867 25.954C36.818 26.5546 37.2672 27.1552 37.7344 27.7376V14.3966C37.2672 13.5958 36.818 12.7768 36.3867 11.9396V25.954Z" fill="url(#paint11_linear_154_888)"/>
<path d="M34.9316 23.6061V8.9911C34.3926 7.80806 33.8715 6.62503 33.4043 5.38739V23.6607C33.6918 23.1329 33.9613 22.6051 34.1949 22.0773C34.3926 22.5869 34.6441 23.0965 34.9316 23.6061Z" fill="#CA973B"/>
<path d="M31.9305 12.2125C31.4812 13.0497 31.0141 13.887 30.5469 14.706V27.8104C31.032 27.2098 31.4992 26.6092 31.9305 25.9903V12.2125Z" fill="url(#paint12_linear_154_888)"/>
<path d="M27.7441 30.8682C28.1934 30.4131 28.6426 29.9581 29.0918 29.4849V17.0721C28.6605 17.7456 28.2113 18.4008 27.7441 19.056V30.8682Z" fill="url(#paint13_linear_154_888)"/>
<path d="M24.8867 33.489C25.3539 33.0886 25.8211 32.6882 26.2703 32.2695V21.0216C25.8211 21.604 25.3539 22.1864 24.8867 22.7507V33.489Z" fill="url(#paint14_linear_154_888)"/>
</g>
<defs>
<linearGradient id="paint0_linear_154_888" x1="12.9754" y1="13.8741" x2="55.2789" y2="13.8741" gradientUnits="userSpaceOnUse">
<stop stop-color="#FEE3B2"/>
<stop offset="1" stop-color="#BE8D34"/>
</linearGradient>
<linearGradient id="paint1_linear_154_888" x1="12.9754" y1="35.372" x2="55.2789" y2="35.372" gradientUnits="userSpaceOnUse">
<stop stop-color="#FEE3B2"/>
<stop offset="1" stop-color="#BE8D34"/>
</linearGradient>
<linearGradient id="paint2_linear_154_888" x1="12.9753" y1="33.4513" x2="55.2789" y2="33.4513" gradientUnits="userSpaceOnUse">
<stop stop-color="#FEE3B2"/>
<stop offset="1" stop-color="#BE8D34"/>
</linearGradient>
<linearGradient id="paint3_linear_154_888" x1="12.975" y1="31.5787" x2="55.2785" y2="31.5787" gradientUnits="userSpaceOnUse">
<stop stop-color="#FEE3B2"/>
<stop offset="1" stop-color="#BE8D34"/>
</linearGradient>
<linearGradient id="paint4_linear_154_888" x1="12.9743" y1="29.6342" x2="55.2777" y2="29.6342" gradientUnits="userSpaceOnUse">
<stop stop-color="#FEE3B2"/>
<stop offset="1" stop-color="#BE8D34"/>
</linearGradient>
<linearGradient id="paint5_linear_154_888" x1="12.9747" y1="29.6751" x2="55.278" y2="29.6751" gradientUnits="userSpaceOnUse">
<stop stop-color="#FEE3B2"/>
<stop offset="1" stop-color="#BE8D34"/>
</linearGradient>
<linearGradient id="paint6_linear_154_888" x1="12.9758" y1="31.6214" x2="55.2793" y2="31.6214" gradientUnits="userSpaceOnUse">
<stop stop-color="#FEE3B2"/>
<stop offset="1" stop-color="#BE8D34"/>
</linearGradient>
<linearGradient id="paint7_linear_154_888" x1="12.9743" y1="33.4756" x2="55.2777" y2="33.4756" gradientUnits="userSpaceOnUse">
<stop stop-color="#FEE3B2"/>
<stop offset="1" stop-color="#BE8D34"/>
</linearGradient>
<linearGradient id="paint8_linear_154_888" x1="12.9751" y1="35.3918" x2="55.2785" y2="35.3918" gradientUnits="userSpaceOnUse">
<stop stop-color="#FEE3B2"/>
<stop offset="1" stop-color="#BE8D34"/>
</linearGradient>
<linearGradient id="paint9_linear_154_888" x1="12.9743" y1="27.1984" x2="55.2777" y2="27.1984" gradientUnits="userSpaceOnUse">
<stop stop-color="#FEE3B2"/>
<stop offset="1" stop-color="#BE8D34"/>
</linearGradient>
<linearGradient id="paint10_linear_154_888" x1="12.9758" y1="23.8331" x2="55.2793" y2="23.8331" gradientUnits="userSpaceOnUse">
<stop stop-color="#FEE3B2"/>
<stop offset="1" stop-color="#BE8D34"/>
</linearGradient>
<linearGradient id="paint11_linear_154_888" x1="12.9747" y1="19.8358" x2="55.2781" y2="19.8358" gradientUnits="userSpaceOnUse">
<stop stop-color="#FEE3B2"/>
<stop offset="1" stop-color="#BE8D34"/>
</linearGradient>
<linearGradient id="paint12_linear_154_888" x1="12.9747" y1="20.0146" x2="55.2781" y2="20.0146" gradientUnits="userSpaceOnUse">
<stop stop-color="#FEE3B2"/>
<stop offset="1" stop-color="#BE8D34"/>
</linearGradient>
<linearGradient id="paint13_linear_154_888" x1="12.9751" y1="23.9694" x2="55.2785" y2="23.9694" gradientUnits="userSpaceOnUse">
<stop stop-color="#FEE3B2"/>
<stop offset="1" stop-color="#BE8D34"/>
</linearGradient>
<linearGradient id="paint14_linear_154_888" x1="12.9747" y1="27.2595" x2="55.2781" y2="27.2595" gradientUnits="userSpaceOnUse">
<stop stop-color="#FEE3B2"/>
<stop offset="1" stop-color="#BE8D34"/>
</linearGradient>
<clipPath id="clip0_154_888">
<rect width="69" height="53" fill="white"/>
</clipPath>
</defs>
</svg>
